<svg xmlns="http://www.w3.org/2000/svg" xmlns:xlink="http://www.w3.org/1999/xlink" width="58.533" height="75.138" viewBox="0 0 58.533 75.138"><defs><clipPath id="a"><path d="M690,289.5h25.7v54.188H690Zm0,0" transform="translate(-690 -289.5)"/></clipPath></defs><g transform="translate(-610.481 -289.5)"><path d="M639.4,491.552c18.1,6.35,32.988-2.863,28.293-7.443,0,0,1.282,2.286-1.41,4.053-5.123,3.361-21.323,4.371-25.822.135-1.617-1.526,1.418-3.639,2.369-4.081a3.024,3.024,0,0,1,1.565-.38C642.6,481.092,632.765,489.221,639.4,491.552Zm0,0" transform="translate(-15.233 -133.765)" fill="#4e7d9d"/><path d="M725.713,496.883s-1.22,3.169-14.412,5.689c-14.877,2.836-33.238,2.505-44.121.686,0,0,2.232,1.869,13.691,2.613C698.3,507,725.081,505.246,725.713,496.883Zm0,0" transform="translate(-56.699 -141.542)" fill="#4e7d9d"/><path d="M706.511,444.106c-11.2,2.187-17.676,2.113-25.874,1.258-6.332-.666-2.187-3.778-2.187-3.778-16.4,5.512,9.128,11.773,32.04,4.981A11.469,11.469,0,0,1,706.511,444.106Zm0,0" transform="translate(-52.117 -103.549)" fill="#4e7d9d"/><path d="M768.172,432.215a1.6,1.6,0,0,1-.363.482c24.262-6.464,15.342-22.787,3.741-18.654A3.34,3.34,0,0,0,770,415.258a13.757,13.757,0,0,1,2.077-.564C777.941,413.451,786.337,422.647,768.172,432.215Zm0,0" transform="translate(-125.638 -86.297)" fill="#4e7d9d"/><g transform="translate(626.852 289.5)" clip-path="url(#a)"><path d="M692.294,320.687c-4.513,6.872,2.219,14.253,11.392,22.648-3.578-8.194-15.714-15.371,0-27.952,19.6-15.685,9.54-25.882,9.54-25.882C717.294,305.7,698.923,310.59,692.294,320.687Zm0,0" transform="translate(-690.489 -289.5)" fill="#f2941b"/></g><path d="M742.589,336.293c0-.005-33.144,8.386-17.313,26.876,4.672,5.45-1.228,10.356-1.228,10.356s11.857-6.206,6.41-13.975C725.369,352.3,721.469,348.707,742.589,336.293Zm0,0" transform="translate(-88.923 -34.317)" fill="#f2941b"/><path d="M684.614,466.664c-14.885,4.215,9.054,12.93,28.011,4.7a34.947,34.947,0,0,1-5.328-2.642c-8.452,1.628-12.372,1.754-20.047.863C680.913,468.848,684.614,466.664,684.614,466.664Zm0,0" transform="translate(-56.625 -124.268)" fill="#4e7d9d"/><path d="M699.507,421.543a30.478,30.478,0,0,1,4.431-2.4s-7.313,1.328-14.6,1.949c-8.912.756-18.479.9-23.278.254-11.367-1.538,6.231-5.774,6.231-5.774a32.929,32.929,0,0,0-15.232,3.647C647.118,424.091,681.643,426.307,699.507,421.543Zm0,0" transform="translate(-39.871 -85.932)" fill="#4e7d9d"/></g></svg>