<svg xmlns="http://www.w3.org/2000/svg" xmlns:xlink="http://www.w3.org/1999/xlink" width="54.949" height="56.793" viewBox="0 0 54.949 56.793"><defs><clipPath id="a"><path d="M608.25,289.5h22.557v14.137H608.25Zm0,0" transform="translate(-608.25 -289.5)"/></clipPath><clipPath id="b"><path d="M608.25,314h22.8v50.769h-22.8Zm0,0" transform="translate(-608.25 -314)"/></clipPath><clipPath id="c"><path d="M694,415h23.111v25.938H694Zm0,0" transform="translate(-694 -415)"/></clipPath><clipPath id="d"><path d="M781,340h12.477v20.16H781Zm0,0" transform="translate(-781 -340)"/></clipPath><clipPath id="e"><path d="M737,315h23.295v14.014H737Zm0,0" transform="translate(-737 -315)"/></clipPath></defs><g transform="translate(-608.25 -289.5)"><g transform="translate(608.25 289.5)" clip-path="url(#a)"><path d="M619.707,303.559a.751.751,0,0,1-.376-.1l-.074-.043-10.564-6.156a.757.757,0,0,1-.009-1.3l10.314-6.2a.749.749,0,0,1,.771,0l10.511,6.334a.756.756,0,0,1,0,1.3l-10.189,6.064A.743.743,0,0,1,619.707,303.559ZM610.55,296.6l9.153,5.334,8.726-5.194-9.045-5.45Zm0,0" transform="translate(-608.303 -289.615)" fill="#ef0a1b"/></g><g transform="translate(608.25 295.523)" clip-path="url(#b)"><path d="M630.2,365.422a.742.742,0,0,1-.364-.094l-21.126-11.789a.756.756,0,0,1-.386-.66V315.62a.75.75,0,0,1,1.126-.653l10.563,6.156a.755.755,0,0,1,.375.653v24.412l10.19,5.967a.755.755,0,0,1,.373.652v11.862a.75.75,0,0,1-.751.754Zm-20.375-12.987,19.624,10.951V353.24l-10.19-5.967a.756.756,0,0,1-.374-.652V322.21l-9.061-5.28Zm0,0" transform="translate(-608.303 -314.652)" fill="#ef0a1b"/></g><path d="M652.032,347.788a.752.752,0,0,1-.751-.754V322.189a.755.755,0,0,1,.377-.654.726.726,0,0,1,.311-.1l9.944-5.919a.746.746,0,0,1,.75-.008.754.754,0,0,1,.383.648l.3,24.536a.756.756,0,0,1-.367.658l-10.562,6.331A.757.757,0,0,1,652.032,347.788Zm.751-25.083v23l9.056-5.427-.28-22.8Zm0,0" transform="translate(-32.452 -19.542)" fill="#ef0a1b"/><g transform="translate(629.332 320.355)" clip-path="url(#c)"><path d="M695,441.543a.745.745,0,0,1-.382-.1.756.756,0,0,1-.369-.649V428.928a.754.754,0,0,1,.378-.655l21.5-12.371a.752.752,0,0,1,1.125.655v12.371a.756.756,0,0,1-.39.662l-21.5,11.862A.754.754,0,0,1,695,441.543Zm.751-12.178v10.148l20-11.033V417.858Zm0,0" transform="translate(-694.185 -415.605)" fill="#ef0a1b"/></g><path d="M662.6,411.157a.753.753,0,0,1-.378-.1l-10.562-6.185a.756.756,0,0,1-.007-1.3l10.563-6.331a.182.182,0,0,1,.024-.014l10.714-5.895a.75.75,0,0,1,.726,0l10.786,6.04a.756.756,0,0,1,.008,1.314l-21.5,12.371A.748.748,0,0,1,662.6,411.157Zm-9.084-6.947,9.087,5.322,19.971-11.491-9.263-5.186-10.339,5.687Zm0,0" transform="translate(-32.452 -76.725)" fill="#ef0a1b"/><path d="M749.362,360.2a.752.752,0,0,1-.366-.095l-10.786-6.04a.757.757,0,0,1-.386-.662l.037-12.578a.757.757,0,0,1,.375-.651.749.749,0,0,1,.748,0l10.751,6.175a.756.756,0,0,1,.378.655v12.443a.751.751,0,0,1-.751.755Zm-10.035-7.237,9.284,5.2V347.444l-9.252-5.315Zm0,0" transform="translate(-97.717 -38.142)" fill="#ef0a1b"/><g transform="translate(650.722 301.916)" clip-path="url(#d)"><path d="M782.45,360.2a.751.751,0,0,1-.751-.755V347.006a.756.756,0,0,1,.379-.656l10.787-6.174a.745.745,0,0,1,.748,0,.756.756,0,0,1,.374.652v12.578a.756.756,0,0,1-.385.66l-10.787,6.04A.746.746,0,0,1,782.45,360.2Zm.751-12.759v10.72l9.285-5.2V342.129Zm0,0" transform="translate(-781.527 -340.057)" fill="#ef0a1b"/></g><g transform="translate(639.904 295.769)" clip-path="url(#e)"><path d="M749.474,329.16a.749.749,0,0,1-.373-.1l-10.75-6.174a.757.757,0,0,1,.006-1.314l10.75-6.064a.745.745,0,0,1,.734,0l10.787,6.064a.756.756,0,0,1,0,1.314l-10.786,6.175A.758.758,0,0,1,749.474,329.16Zm-9.227-6.923,9.227,5.3,9.259-5.3-9.259-5.205Zm0,0" transform="translate(-737.734 -315.311)" fill="#ef0a1b"/></g></g></svg>