<svg xmlns="http://www.w3.org/2000/svg" xmlns:xlink="http://www.w3.org/1999/xlink" width="44.623" height="56.793" viewBox="0 0 44.623 56.793"><defs><clipPath id="a"><path d="M629.25,289.5h29.441v43.885H629.25Zm0,0" transform="translate(-629.25 -289.5)"/></clipPath><clipPath id="b"><path d="M735,349h18.624v42.164H735Zm0,0" transform="translate(-735 -349)"/></clipPath><clipPath id="c"><path d="M769,289.5h9.343v9.465H769Zm0,0" transform="translate(-769 -289.5)"/></clipPath></defs><g transform="translate(-629.25 -289.5)"><g transform="translate(629.25 289.5)" clip-path="url(#a)"><path d="M649.426,289.5h9.3v42.619a61.544,61.544,0,0,1-12.066,1.255c-11.361-.011-17.275-5.084-17.275-14.83,0-9.388,6.273-15.482,15.994-15.482a15.137,15.137,0,0,1,4.045.475Zm.326,21.717a9.345,9.345,0,0,0-3.136-.475c-4.7,0-7.423,2.869-7.423,7.9,0,4.9,2.6,7.6,7.362,7.6a21.98,21.98,0,0,0,3.2-.237Zm0,0" transform="translate(-629.353 -289.5)" fill="#2ba977"/></g><g transform="translate(655.249 304.129)" clip-path="url(#b)"><path d="M754.166,349.316v21.339c0,7.35-.551,10.884-2.167,13.93-1.509,2.93-3.5,4.777-7.6,6.817l-8.63-4.066c4.107-1.907,6.093-3.594,7.362-6.167,1.329-2.629,1.748-5.676,1.748-13.69V349.316Zm0,0" transform="translate(-735.578 -349.238)" fill="#2ba977"/></g><g transform="translate(663.609 289.5)" clip-path="url(#c)"><path d="M769.008,289.5h9.3v9.448h-9.3Zm0,0" transform="translate(-769.006 -289.5)" fill="#2ba977"/></g></g></svg>